<?xml version="1.0" encoding="utf-8"?>
<!-- Generator: Adobe Illustrator 21.0.2, SVG Export Plug-In . SVG Version: 6.00 Build 0)  -->
<svg version="1.1" id="Laag_1" xmlns="http://www.w3.org/2000/svg" xmlns:xlink="http://www.w3.org/1999/xlink" x="0px" y="0px"
	 viewBox="0 0 841.9 595.3" style="enable-background:new 0 0 841.9 595.3;" xml:space="preserve">
<style type="text/css">
	.st0{fill:#2E2E2E;}
	.st1{fill:#F7A52C;}
</style>
<g>
	<path class="st0" d="M214.2,74.1c13.6,6.1,24.4,13.9,32.5,23.3c8.1,9.5,13.8,20,17.1,31.5c3.3,11.5,5,22.5,5,33.2
		c0,11.2-1.8,22.6-5.4,34.2c-3.6,11.6-9.4,22-17.5,31.3c-8.1,9.3-18.7,16.9-31.9,22.8c-13.2,5.9-29.4,8.8-48.6,8.8H94.7V65h68.1
		C183.4,65,200.6,68,214.2,74.1z M109.8,77.5v169.2h54.7c11.6,0,22.7-1.9,33.3-5.6c10.6-3.7,20-9.1,28.2-16.2s14.6-16,19.4-26.5
		c4.7-10.5,7.1-22.6,7.1-36.3c0-12.5-2.1-24-6.4-34.3c-4.3-10.3-10.3-19.2-18.2-26.6S210.6,88,199.6,83.8c-10.9-4.2-22.9-6.3-36-6.3
		H109.8z"/>
	<path class="st0" d="M423.3,229.2c-3,6.4-7.4,11.8-13.1,16.2c-5.7,4.5-12.6,7.9-20.6,10.2c-8.1,2.4-17,3.6-26.9,3.6h-57V65h40.4
		c13.1,0,23.8,1.6,32.2,4.7c8.4,3.1,14.9,7.1,19.8,12s8.2,10.2,10,16.1c1.8,5.9,2.7,11.7,2.7,17.4c0,9.7-2.2,18-6.7,24.9
		c-4.5,6.9-11.5,13.1-21.2,18.4c14.8,3.2,26,9,33.6,17.2c7.6,8.3,11.4,18.9,11.4,32C427.9,215.6,426.4,222.8,423.3,229.2z
		 M320.8,77.5V155h20.8c9.9,0,18.2-0.9,24.9-2.8c6.7-1.9,12.2-4.6,16.4-8c4.2-3.4,7.2-7.5,9-12.2c1.8-4.7,2.7-10,2.7-15.7
		c0-7.4-1.4-13.6-4.1-18.5c-2.8-4.9-6.6-8.9-11.4-12c-4.8-3-10.5-5.2-16.9-6.4c-6.5-1.2-13.5-1.9-21.1-1.9H320.8z M409.4,193.1
		c-1.5-4.7-4.4-9-8.7-12.8c-4.3-3.8-10.1-6.9-17.5-9.3c-7.4-2.4-17-3.6-28.8-3.6h-33.6v79.2H361c10.1,0,18.4-1.2,24.9-3.7
		c6.6-2.5,11.7-5.6,15.5-9.4c3.8-3.8,6.4-8,8-12.7c1.5-4.6,2.3-9.2,2.3-13.5C411.7,202.6,410.9,197.9,409.4,193.1z"/>
	<path class="st0" d="M456.6,259.2V74.3l15.1,21.4v151H579l8.8,12.5H456.6z"/>
</g>
<g>
	<path class="st1" d="M94.7,288.6h65.1c20.7,0,37.8,3,51.4,9.1c13.6,6.1,24.4,13.9,32.5,23.3c8.1,9.5,13.8,20,17.1,31.5
		c3.3,11.5,5,22.5,5,33.2c0,11.2-1.8,22.6-5.4,34.2c-3.6,11.6-9.4,22-17.5,31.3c-8.1,9.3-18.7,16.9-31.9,22.8
		c-13.2,5.9-9.4,3.8-27.1,8.7l-8.3-11.7c11.1-1.7,36.8-10,48.3-22.3c7.4-7.9,13.8-16.2,18.5-26.7c4.7-10.5,7.1-22.6,7.1-36.3
		c0-12.5-2.1-24-6.4-34.3c-4.3-10.3-10.3-19.2-18.2-26.6s-17.3-13.2-28.2-17.4c-10.9-4.2-22.9-6.3-36-6.3l-57.3,0.1L94.7,288.6z"/>
	<path class="st1" d="M302.8,482.8V288.6h105.9l-5.4,12.5h-85.4v77.7h82v12.5h-82v78.9h88.8l4.3,12.5H302.8z"/>
	<path class="st1" d="M505.8,487.4l-6-4.8l-79.4-192.2l13.7-5.7l70.3,168.3l70.1-168.3l13.4,5.7L505.8,487.4z"/>
</g>
</svg>
