<svg id="Laag_1" data-name="Laag 1" xmlns="http://www.w3.org/2000/svg" viewBox="0 0 621.84 136.13"><defs><style>.cls-1{fill:#2e2e2e;}.cls-2{fill:#f7a52c;}.cls-3{fill:none;stroke:#2e2e2e;stroke-linecap:round;stroke-miterlimit:10;stroke-width:5px;}</style></defs><title>logo</title><path class="cls-1" d="M228.7,257.81q13.66,6.12,21.79,15.67A56.8,56.8,0,0,1,262,294.62a80.35,80.35,0,0,1,3.35,22.27,77.08,77.08,0,0,1-3.63,22.95,58.14,58.14,0,0,1-11.76,21,60.28,60.28,0,0,1-21.41,15.3q-13.29,5.92-32.6,5.92H148.49V251.69h45.7Q215,251.69,228.7,257.81Zm-70.08,2.29V373.68h36.71a67.56,67.56,0,0,0,22.37-3.73A57,57,0,0,0,236.63,359a51,51,0,0,0,13-17.78,58.88,58.88,0,0,0,4.78-24.38,59.87,59.87,0,0,0-4.3-23A50.81,50.81,0,0,0,237.88,276,57.18,57.18,0,0,0,219,264.31a67.22,67.22,0,0,0-24.19-4.21Z" transform="translate(-148.49 -248.82)"/><path class="cls-1" d="M369.14,361.91a30.3,30.3,0,0,1-8.8,10.9,40.93,40.93,0,0,1-13.86,6.88,63.85,63.85,0,0,1-18.07,2.39H290.17V251.69h27.15q13.2,0,21.61,3.15a36.8,36.8,0,0,1,13.29,8,26,26,0,0,1,6.69,10.8,39.75,39.75,0,0,1,1.82,11.66,30.2,30.2,0,0,1-4.5,16.73q-4.5,7-14.24,12.34,14.92,3.25,22.56,11.57t7.65,21.51A33.09,33.09,0,0,1,369.14,361.91ZM300.31,260.1v52h14A62.44,62.44,0,0,0,331,310.2a30,30,0,0,0,11-5.36,19.48,19.48,0,0,0,6-8.22,29.42,29.42,0,0,0,1.81-10.52A25.23,25.23,0,0,0,347,273.68a22.09,22.09,0,0,0-7.64-8,32.88,32.88,0,0,0-11.38-4.3,75.45,75.45,0,0,0-14.15-1.25Zm59.46,77.63a19.46,19.46,0,0,0-5.83-8.6,32.41,32.41,0,0,0-11.76-6.21q-7.46-2.39-19.31-2.39H300.31v53.16h27q10.13,0,16.73-2.49a29,29,0,0,0,10.42-6.31,21.34,21.34,0,0,0,5.35-8.51,29.1,29.1,0,0,0,1.53-9.08A31.17,31.17,0,0,0,359.77,337.73Z" transform="translate(-148.49 -248.82)"/><path class="cls-1" d="M391.5,382.09V257.92l10.14,14.36v101.4h72l5.94,8.41Z" transform="translate(-148.49 -248.82)"/><path class="cls-2" d="M407.17,251.5H483q20.84,0,34.52,6.12t21.79,15.67a56.8,56.8,0,0,1,11.48,21.13,80.35,80.35,0,0,1,3.35,22.27,77.08,77.08,0,0,1-3.63,22.95,58.14,58.14,0,0,1-11.76,21A60.28,60.28,0,0,1,517.3,376c-8.86,3.95-6.3,2.53-18.17,5.87L493.56,374c7.48-1.12,24.68-6.69,32.44-15a64.84,64.84,0,0,0,12.42-17.92,58.88,58.88,0,0,0,4.78-24.38,59.87,59.87,0,0,0-4.3-23,50.81,50.81,0,0,0-12.24-17.88,57.18,57.18,0,0,0-18.93-11.66,67.22,67.22,0,0,0-24.19-4.21L413,260Z" transform="translate(-148.49 -248.82)"/><path class="cls-2" d="M579,381.9V251.5h71.13l-3.63,8.41H589.09v52.2h55.06v8.42H589.09v53h59.65l2.87,8.41Z" transform="translate(-148.49 -248.82)"/><path class="cls-2" d="M715.27,385l-4-3.25L657.91,252.65l9.18-3.83,47.22,113,47-113,9,3.83Z" transform="translate(-148.49 -248.82)"/><line class="cls-3" x1="250.67" y1="4.77" x2="341.65" y2="133.02"/></svg>